<svg version="1.1" xmlns="http://www.w3.org/2000/svg" xmlns:xlink="http://www.w3.org/1999/xlink" viewBox="0 0 226 226"><g fill="none" fill-rule="nonzero" stroke="none" stroke-width="1" stroke-linecap="butt" stroke-linejoin="miter" stroke-miterlimit="10" stroke-dasharray="" stroke-dashoffset="0" font-family="none" font-weight="none" font-size="none" text-anchor="none" style="mix-blend-mode: normal"><path d="M0,226v-226h226v226z" fill="none"></path><g fill="#f1c40f"><path d="M31.64,9.04v207.92h162.72v-147.30609l-62.45016,-60.61391zM40.68,18.08h85.88v58.76h58.76v131.08h-144.64zM135.6,25.21313l43.87578,42.58688h-43.87578zM115.10109,106.06109c-9.55203,0 -14.44281,6.10906 -14.44281,13.43641c0,4.13156 2.38359,8.93406 8.61625,12.73016c3.86672,2.52484 5.89719,4.13156 5.89719,7.46859c0,2.96625 -2.03047,5.15562 -6.25031,5.15562c-2.56016,0 -5.68531,-0.75922 -7.50391,-1.76562l-1.28891,7.64516c1.48312,0.88281 5.06734,1.83625 8.73984,1.83625c8.95172,0 15.13141,-5.49109 15.13141,-13.82484c0,-4.82016 -2.24234,-9.42844 -8.28078,-13.08328c-4.94375,-2.98391 -6.32094,-4.41406 -6.32094,-7.13312c0,-2.43656 1.83625,-4.73188 5.63234,-4.73188c2.57781,0 4.55531,0.74156 5.82656,1.55375l1.43016,-7.66281c-1.35953,-0.81219 -4.20219,-1.62438 -7.18609,-1.62438zM80.72437,106.27297c-3.39,0 -6.78,0.33547 -9.28719,0.86516v45.04109h8.88109v-17.02062h1.76563c3.65484,0 8.26313,-1.35953 11.12344,-4.34344c2.36594,-2.57781 3.84906,-6.03844 3.84906,-10.98219c0,-3.86672 -1.20063,-7.66281 -3.91969,-10.02875c-2.98391,-2.78969 -7.11547,-3.53125 -12.41234,-3.53125zM138.1425,106.27297c-3.51359,0 -6.78,0.33547 -9.00469,0.86516v44.89984c1.76563,0.21187 4.53766,0.45906 7.30969,0.45906c6.37391,0 10.92922,-1.4125 13.98375,-4.39641c3.99031,-3.53125 6.35625,-10.09937 6.35625,-19.33359c0,-8.88109 -2.03047,-14.90187 -5.95016,-18.43312c-2.93094,-2.71906 -6.92125,-4.06094 -12.69484,-4.06094zM139.78453,113.38844c5.34984,0 7.80406,5.68531 7.80406,15.04313c0,12.60656 -3.74312,16.82641 -8.01594,16.82641c-0.47672,0 -1.14766,0 -1.55375,-0.14125v-31.53406c0.54734,-0.19422 1.14766,-0.19422 1.76563,-0.19422zM82.49,113.44141c4.13156,0 5.75594,3.12516 5.75594,7.13312c0,4.27281 -2.03047,7.45094 -6.4975,7.45094c-0.54734,0 -1.02406,0 -1.43016,-0.12359v-14.10734c0.54734,-0.21187 1.35953,-0.35312 2.17172,-0.35312z"></path></g></g></svg>